# xmcd
#
# Track frame offsets:
#	150
#	11536
#	23325
#	36803
#	50951
#	64743
#	77775
#	88301
#	98077
#	113636
#	123972
#	141438
#	151980
#	169364
#	181012
#	194075
#	211752
#	223605
#
# Disc length: 3127 seconds
#
# Revision: 0
# Processed by: cddbd v1.5.2PL0 Copyright (c) Steve Scherf et al.
# Submitted via: EZCDAudioConverter 1.3.4.1
#
DISCID=f80c3512
DTITLE=Jamme - Jamme (1968)
DYEAR=1900
DGENRE=
TTITLE0=Poor Widow
TTITLE1=She Sits There
TTITLE2=Jan
TTITLE3=Strawberry Jam Man
TTITLE4=Richman
TTITLE5=My Old Lady
TTITLE6=Changes
TTITLE7=Empty Feelings
TTITLE8=Scarborough Rose
TTITLE9=Matthew O'Grady
TTITLE10=Thanks To The Man In The Rabbit Hat
TTITLE11=Changes [Alternate Version]
TTITLE12=Strawberry Jam Man [Alternate Version]
TTITLE13=Empty Feelings [Instrumental]
TTITLE14=Love Makes The World Go' Round [Demo]
TTITLE15=That Girl Has Got A Hold On Me [Demo]
TTITLE16=She Sits There [Mono 45]
TTITLE17=Poor Widow [Mono 45]
EXTD=
EXTT0=
EXTT1=
EXTT2=
EXTT3=
EXTT4=
EXTT5=
EXTT6=
EXTT7=
EXTT8=
EXTT9=
EXTT10=
EXTT11=
EXTT12=
EXTT13=
EXTT14=
EXTT15=
EXTT16=
EXTT17=
PLAYORDER=
